<?xml version="1.0" encoding="UTF-8" standalone="no"?>
<!DOCTYPE svg PUBLIC "-//W3C//DTD SVG 1.1//EN"
 "http://www.w3.org/Graphics/SVG/1.1/DTD/svg11.dtd">
<!-- Generated by graphviz version 2.40.1 (20161225.0304)
 -->
<!-- Title: achievements Pages: 1 -->
<svg width="854pt" height="592pt"
 viewBox="0.00 0.00 854.00 592.00" xmlns="http://www.w3.org/2000/svg" xmlns:xlink="http://www.w3.org/1999/xlink">
<g id="graph0" class="graph" transform="scale(1 1) rotate(0) translate(4 588)">
<title>achievements</title>
<polygon fill="#ffffff" stroke="transparent" points="-4,4 -4,-588 850,-588 850,4 -4,4"/>
<!-- achievements -->
<g id="node1" class="node">
<title>achievements</title>
<polygon fill="#efefef" stroke="transparent" points="306.5,-225.5 306.5,-260.5 558.5,-260.5 558.5,-225.5 306.5,-225.5"/>
<polygon fill="none" stroke="#000000" points="306.5,-225.5 306.5,-260.5 558.5,-260.5 558.5,-225.5 306.5,-225.5"/>
<text text-anchor="start" x="313.2031" y="-238.3" font-family="Arial Bold" font-size="18.00" fill="#000000">achievements</text>
<text text-anchor="start" x="424.2289" y="-238.3" font-family="Arial" font-size="14.00" fill="#000000">    </text>
<text text-anchor="start" x="458.4337" y="-238.3" font-family="Arial" font-size="14.00" fill="#666666">[BASE TABLE]</text>
<polygon fill="none" stroke="#000000" points="306.5,-195.5 306.5,-225.5 558.5,-225.5 558.5,-195.5 306.5,-195.5"/>
<text text-anchor="start" x="313.5" y="-206.9" font-family="Arial" font-size="14.00" fill="#000000">id </text>
<text text-anchor="start" x="328.2798" y="-206.9" font-family="Arial" font-size="14.00" fill="#666666">[bigint(20)]</text>
<polygon fill="none" stroke="#000000" points="306.5,-165.5 306.5,-195.5 558.5,-195.5 558.5,-165.5 306.5,-165.5"/>
<text text-anchor="start" x="313.5" y="-176.9" font-family="Arial" font-size="14.00" fill="#000000">key </text>
<text text-anchor="start" x="339.1732" y="-176.9" font-family="Arial" font-size="14.00" fill="#666666">[varchar(255)]</text>
<polygon fill="none" stroke="#000000" points="306.5,-135.5 306.5,-165.5 558.5,-165.5 558.5,-135.5 306.5,-135.5"/>
<text text-anchor="start" x="313.5" y="-146.9" font-family="Arial" font-size="14.00" fill="#000000">count </text>
<text text-anchor="start" x="351.629" y="-146.9" font-family="Arial" font-size="14.00" fill="#666666">[bigint(20)]</text>
<polygon fill="none" stroke="#000000" points="306.5,-105.5 306.5,-135.5 558.5,-135.5 558.5,-105.5 306.5,-105.5"/>
<text text-anchor="start" x="313.5" y="-116.9" font-family="Arial" font-size="14.00" fill="#000000">point </text>
<text text-anchor="start" x="347.7356" y="-116.9" font-family="Arial" font-size="14.00" fill="#666666">[int(11)]</text>
<polygon fill="none" stroke="#000000" points="306.5,-75.5 306.5,-105.5 558.5,-105.5 558.5,-75.5 306.5,-75.5"/>
<text text-anchor="start" x="313.5" y="-86.9" font-family="Arial" font-size="14.00" fill="#000000">hidden </text>
<text text-anchor="start" x="359.4102" y="-86.9" font-family="Arial" font-size="14.00" fill="#666666">[tinyint(1)]</text>
<polygon fill="none" stroke="#000000" points="306.5,-45.5 306.5,-75.5 558.5,-75.5 558.5,-45.5 306.5,-45.5"/>
<text text-anchor="start" x="313.5" y="-56.9" font-family="Arial" font-size="14.00" fill="#000000">flags </text>
<text text-anchor="start" x="346.953" y="-56.9" font-family="Arial" font-size="14.00" fill="#666666">[int(11)]</text>
<polygon fill="none" stroke="#000000" stroke-width="3" points="305,-44.5 305,-262.5 560,-262.5 560,-44.5 305,-44.5"/>
</g>
<!-- achievement_translations -->
<g id="node2" class="node">
<title>achievement_translations</title>
<polygon fill="#efefef" stroke="transparent" points="43.5,-505.5 43.5,-540.5 388.5,-540.5 388.5,-505.5 43.5,-505.5"/>
<polygon fill="none" stroke="#000000" points="43.5,-505.5 43.5,-540.5 388.5,-540.5 388.5,-505.5 43.5,-505.5"/>
<text text-anchor="start" x="50.192" y="-518.3" font-family="Arial Bold" font-size="18.00" fill="#000000">achievement_translations</text>
<text text-anchor="start" x="254.24" y="-518.3" font-family="Arial" font-size="14.00" fill="#000000">    </text>
<text text-anchor="start" x="288.4448" y="-518.3" font-family="Arial" font-size="14.00" fill="#666666">[BASE TABLE]</text>
<polygon fill="none" stroke="#000000" points="43.5,-475.5 43.5,-505.5 388.5,-505.5 388.5,-475.5 43.5,-475.5"/>
<text text-anchor="start" x="50.5" y="-486.9" font-family="Arial" font-size="14.00" fill="#000000">id    </text>
<text text-anchor="start" x="95.594" y="-486.9" font-family="Arial" font-size="14.00" fill="#666666">[bigint(20)]</text>
<polygon fill="none" stroke="#000000" points="43.5,-445.5 43.5,-475.5 388.5,-475.5 388.5,-445.5 43.5,-445.5"/>
<text text-anchor="start" x="50.5" y="-456.9" font-family="Arial" font-size="14.00" fill="#000000">lang    </text>
<text text-anchor="start" x="111.1592" y="-456.9" font-family="Arial" font-size="14.00" fill="#666666">[varchar(5)]</text>
<polygon fill="none" stroke="#000000" points="43.5,-415.5 43.5,-445.5 388.5,-445.5 388.5,-415.5 43.5,-415.5"/>
<text text-anchor="start" x="50.5" y="-426.9" font-family="Arial" font-size="14.00" fill="#000000">name    </text>
<text text-anchor="start" x="119.7132" y="-426.9" font-family="Arial" font-size="14.00" fill="#666666">[varchar(255)]</text>
<polygon fill="none" stroke="#000000" points="43.5,-385.5 43.5,-415.5 388.5,-415.5 388.5,-385.5 43.5,-385.5"/>
<text text-anchor="start" x="50.5" y="-396.9" font-family="Arial" font-size="14.00" fill="#000000">description    </text>
<text text-anchor="start" x="152.3822" y="-396.9" font-family="Arial" font-size="14.00" fill="#666666">[varchar(255)]</text>
</g>
<!-- achievement_translations&#45;&gt;achievements -->
<g id="edge1" class="edge">
<title>achievement_translations:id&#45;&gt;achievements:id</title>
<path fill="none" stroke="#000000" d="M398.7386,-489.6323C450.6704,-480.1297 422.3163,-394.7779 388.5,-343 366.7357,-309.6756 328.2643,-340.3244 306.5,-307 283.0478,-271.0911 263.6111,-210.5 306.5,-210.5"/>
<polygon fill="#000000" stroke="#000000" points="398.4643,-489.6555 388.12,-486.0161 393.4821,-490.0777 388.5,-490.5 388.5,-490.5 388.5,-490.5 393.4821,-490.0777 388.88,-494.9839 398.4643,-489.6555 398.4643,-489.6555"/>
<text text-anchor="start" x="395.331" y="-500.5" font-family="Arial" font-size="10.00" fill="#000000">FOREIGN KEY (id) REFERENCES achievements (id)</text>
</g>
<!-- player_achievements -->
<g id="node3" class="node">
<title>player_achievements</title>
<polygon fill="#efefef" stroke="transparent" points="492.5,-490.5 492.5,-525.5 803.5,-525.5 803.5,-490.5 492.5,-490.5"/>
<polygon fill="none" stroke="#000000" points="492.5,-490.5 492.5,-525.5 803.5,-525.5 803.5,-490.5 492.5,-490.5"/>
<text text-anchor="start" x="499.1975" y="-503.3" font-family="Arial Bold" font-size="18.00" fill="#000000">player_achievements</text>
<text text-anchor="start" x="669.2345" y="-503.3" font-family="Arial" font-size="14.00" fill="#000000">    </text>
<text text-anchor="start" x="703.4393" y="-503.3" font-family="Arial" font-size="14.00" fill="#666666">[BASE TABLE]</text>
<polygon fill="none" stroke="#000000" points="492.5,-460.5 492.5,-490.5 803.5,-490.5 803.5,-460.5 492.5,-460.5"/>
<text text-anchor="start" x="499.5" y="-471.9" font-family="Arial" font-size="14.00" fill="#000000">player_id    </text>
<text text-anchor="start" x="590.4916" y="-471.9" font-family="Arial" font-size="14.00" fill="#666666">[varchar(36)]</text>
<polygon fill="none" stroke="#000000" points="492.5,-430.5 492.5,-460.5 803.5,-460.5 803.5,-430.5 492.5,-430.5"/>
<text text-anchor="start" x="499.5" y="-441.9" font-family="Arial" font-size="14.00" fill="#000000">achievement_id    </text>
<text text-anchor="start" x="631.73" y="-441.9" font-family="Arial" font-size="14.00" fill="#666666">[bigint(20)]</text>
<polygon fill="none" stroke="#000000" points="492.5,-400.5 492.5,-430.5 803.5,-430.5 803.5,-400.5 492.5,-400.5"/>
<text text-anchor="start" x="499.5" y="-411.9" font-family="Arial" font-size="14.00" fill="#000000">count    </text>
<text text-anchor="start" x="567.9432" y="-411.9" font-family="Arial" font-size="14.00" fill="#666666">[bigint(20)]</text>
</g>
<!-- player_achievements&#45;&gt;achievements -->
<g id="edge2" class="edge">
<title>player_achievements:achievement_id&#45;&gt;achievements:id</title>
<path fill="none" stroke="#000000" d="M482.4591,-443.9462C457.9811,-434.9996 477.0999,-389.3622 492.5,-358 508.8395,-324.7247 542.1605,-340.2753 558.5,-307 577.404,-268.502 601.3889,-210.5 558.5,-210.5"/>
<polygon fill="#000000" stroke="#000000" points="482.6176,-443.9706 491.8118,-449.9471 487.5588,-444.7353 492.5,-445.5 492.5,-445.5 492.5,-445.5 487.5588,-444.7353 493.1882,-441.0529 482.6176,-443.9706 482.6176,-443.9706"/>
<text text-anchor="start" x="499.211" y="-455.5" font-family="Arial" font-size="10.00" fill="#000000">FOREIGN KEY (achievement_id) REFERENCES achievements (id)</text>
</g>
</g>
</svg>
