<?xml version="1.0" encoding="UTF-8" standalone="no"?>
<!DOCTYPE svg PUBLIC "-//W3C//DTD SVG 1.1//EN"
 "http://www.w3.org/Graphics/SVG/1.1/DTD/svg11.dtd">
<!-- Generated by graphviz version 2.40.1 (20161225.0304)
 -->
<!-- Title: achievement_translations Pages: 1 -->
<svg width="652pt" height="592pt"
 viewBox="0.00 0.00 651.50 592.00" xmlns="http://www.w3.org/2000/svg" xmlns:xlink="http://www.w3.org/1999/xlink">
<g id="graph0" class="graph" transform="scale(1 1) rotate(0) translate(4 588)">
<title>achievement_translations</title>
<polygon fill="#ffffff" stroke="transparent" points="-4,4 -4,-588 647.5,-588 647.5,4 -4,4"/>
<!-- achievement_translations -->
<g id="node1" class="node">
<title>achievement_translations</title>
<polygon fill="#efefef" stroke="transparent" points="46.5,-502.5 46.5,-537.5 391.5,-537.5 391.5,-502.5 46.5,-502.5"/>
<polygon fill="none" stroke="#000000" points="46.5,-502.5 46.5,-537.5 391.5,-537.5 391.5,-502.5 46.5,-502.5"/>
<text text-anchor="start" x="53.192" y="-515.3" font-family="Arial Bold" font-size="18.00" fill="#000000">achievement_translations</text>
<text text-anchor="start" x="257.24" y="-515.3" font-family="Arial" font-size="14.00" fill="#000000">    </text>
<text text-anchor="start" x="291.4448" y="-515.3" font-family="Arial" font-size="14.00" fill="#666666">[BASE TABLE]</text>
<polygon fill="none" stroke="#000000" points="46.5,-472.5 46.5,-502.5 391.5,-502.5 391.5,-472.5 46.5,-472.5"/>
<text text-anchor="start" x="53.5" y="-483.9" font-family="Arial" font-size="14.00" fill="#000000">id </text>
<text text-anchor="start" x="68.2798" y="-483.9" font-family="Arial" font-size="14.00" fill="#666666">[bigint(20)]</text>
<polygon fill="none" stroke="#000000" points="46.5,-442.5 46.5,-472.5 391.5,-472.5 391.5,-442.5 46.5,-442.5"/>
<text text-anchor="start" x="53.5" y="-453.9" font-family="Arial" font-size="14.00" fill="#000000">lang </text>
<text text-anchor="start" x="83.845" y="-453.9" font-family="Arial" font-size="14.00" fill="#666666">[varchar(5)]</text>
<polygon fill="none" stroke="#000000" points="46.5,-412.5 46.5,-442.5 391.5,-442.5 391.5,-412.5 46.5,-412.5"/>
<text text-anchor="start" x="53.5" y="-423.9" font-family="Arial" font-size="14.00" fill="#000000">name </text>
<text text-anchor="start" x="92.399" y="-423.9" font-family="Arial" font-size="14.00" fill="#666666">[varchar(255)]</text>
<polygon fill="none" stroke="#000000" points="46.5,-382.5 46.5,-412.5 391.5,-412.5 391.5,-382.5 46.5,-382.5"/>
<text text-anchor="start" x="53.5" y="-393.9" font-family="Arial" font-size="14.00" fill="#000000">description </text>
<text text-anchor="start" x="125.068" y="-393.9" font-family="Arial" font-size="14.00" fill="#666666">[varchar(255)]</text>
<polygon fill="none" stroke="#000000" stroke-width="3" points="44.5,-381.5 44.5,-539.5 392.5,-539.5 392.5,-381.5 44.5,-381.5"/>
</g>
<!-- achievements -->
<g id="node2" class="node">
<title>achievements</title>
<polygon fill="#efefef" stroke="transparent" points="93.5,-222.5 93.5,-257.5 345.5,-257.5 345.5,-222.5 93.5,-222.5"/>
<polygon fill="none" stroke="#000000" points="93.5,-222.5 93.5,-257.5 345.5,-257.5 345.5,-222.5 93.5,-222.5"/>
<text text-anchor="start" x="100.2031" y="-235.3" font-family="Arial Bold" font-size="18.00" fill="#000000">achievements</text>
<text text-anchor="start" x="211.2289" y="-235.3" font-family="Arial" font-size="14.00" fill="#000000">    </text>
<text text-anchor="start" x="245.4337" y="-235.3" font-family="Arial" font-size="14.00" fill="#666666">[BASE TABLE]</text>
<polygon fill="none" stroke="#000000" points="93.5,-192.5 93.5,-222.5 345.5,-222.5 345.5,-192.5 93.5,-192.5"/>
<text text-anchor="start" x="100.5" y="-203.9" font-family="Arial" font-size="14.00" fill="#000000">id    </text>
<text text-anchor="start" x="145.594" y="-203.9" font-family="Arial" font-size="14.00" fill="#666666">[bigint(20)]</text>
<polygon fill="none" stroke="#000000" points="93.5,-162.5 93.5,-192.5 345.5,-192.5 345.5,-162.5 93.5,-162.5"/>
<text text-anchor="start" x="100.5" y="-173.9" font-family="Arial" font-size="14.00" fill="#000000">key    </text>
<text text-anchor="start" x="156.4874" y="-173.9" font-family="Arial" font-size="14.00" fill="#666666">[varchar(255)]</text>
<polygon fill="none" stroke="#000000" points="93.5,-132.5 93.5,-162.5 345.5,-162.5 345.5,-132.5 93.5,-132.5"/>
<text text-anchor="start" x="100.5" y="-143.9" font-family="Arial" font-size="14.00" fill="#000000">count    </text>
<text text-anchor="start" x="168.9432" y="-143.9" font-family="Arial" font-size="14.00" fill="#666666">[bigint(20)]</text>
<polygon fill="none" stroke="#000000" points="93.5,-102.5 93.5,-132.5 345.5,-132.5 345.5,-102.5 93.5,-102.5"/>
<text text-anchor="start" x="100.5" y="-113.9" font-family="Arial" font-size="14.00" fill="#000000">point    </text>
<text text-anchor="start" x="165.0498" y="-113.9" font-family="Arial" font-size="14.00" fill="#666666">[int(11)]</text>
<polygon fill="none" stroke="#000000" points="93.5,-72.5 93.5,-102.5 345.5,-102.5 345.5,-72.5 93.5,-72.5"/>
<text text-anchor="start" x="100.5" y="-83.9" font-family="Arial" font-size="14.00" fill="#000000">hidden    </text>
<text text-anchor="start" x="176.7244" y="-83.9" font-family="Arial" font-size="14.00" fill="#666666">[tinyint(1)]</text>
<polygon fill="none" stroke="#000000" points="93.5,-42.5 93.5,-72.5 345.5,-72.5 345.5,-42.5 93.5,-42.5"/>
<text text-anchor="start" x="100.5" y="-53.9" font-family="Arial" font-size="14.00" fill="#000000">flags    </text>
<text text-anchor="start" x="164.2672" y="-53.9" font-family="Arial" font-size="14.00" fill="#666666">[int(11)]</text>
</g>
<!-- achievement_translations&#45;&gt;achievements -->
<g id="edge1" class="edge">
<title>achievement_translations:id&#45;&gt;achievements:id</title>
<path fill="none" stroke="#000000" d="M401.6828,-486.6234C455.8606,-476.6644 433.4442,-384.3163 391.5,-337 303.0042,-237.17 181.9958,-400.83 93.5,-301 65.9341,-269.9036 51.9444,-207.5 93.5,-207.5"/>
<polygon fill="#000000" stroke="#000000" points="401.4632,-486.6423 391.114,-483.0166 396.4816,-487.0711 391.5,-487.5 391.5,-487.5 391.5,-487.5 396.4816,-487.0711 391.886,-491.9834 401.4632,-486.6423 401.4632,-486.6423"/>
<text text-anchor="start" x="398.331" y="-497.5" font-family="Arial" font-size="10.00" fill="#000000">FOREIGN KEY (id) REFERENCES achievements (id)</text>
</g>
</g>
</svg>
