<?xml version="1.0" encoding="UTF-8" standalone="no"?>
<!DOCTYPE svg PUBLIC "-//W3C//DTD SVG 1.1//EN"
 "http://www.w3.org/Graphics/SVG/1.1/DTD/svg11.dtd">
<!-- Generated by graphviz version 2.40.1 (20161225.0304)
 -->
<!-- Title: player_achievements Pages: 1 -->
<svg width="888pt" height="562pt"
 viewBox="0.00 0.00 888.00 562.00" xmlns="http://www.w3.org/2000/svg" xmlns:xlink="http://www.w3.org/1999/xlink">
<g id="graph0" class="graph" transform="scale(1 1) rotate(0) translate(4 558)">
<title>player_achievements</title>
<polygon fill="#ffffff" stroke="transparent" points="-4,4 -4,-558 884,-558 884,4 -4,4"/>
<!-- player_achievements -->
<g id="node1" class="node">
<title>player_achievements</title>
<polygon fill="#efefef" stroke="transparent" points="255,-472.5 255,-507.5 566,-507.5 566,-472.5 255,-472.5"/>
<polygon fill="none" stroke="#000000" points="255,-472.5 255,-507.5 566,-507.5 566,-472.5 255,-472.5"/>
<text text-anchor="start" x="261.6975" y="-485.3" font-family="Arial Bold" font-size="18.00" fill="#000000">player_achievements</text>
<text text-anchor="start" x="431.7345" y="-485.3" font-family="Arial" font-size="14.00" fill="#000000">    </text>
<text text-anchor="start" x="465.9393" y="-485.3" font-family="Arial" font-size="14.00" fill="#666666">[BASE TABLE]</text>
<polygon fill="none" stroke="#000000" points="255,-442.5 255,-472.5 566,-472.5 566,-442.5 255,-442.5"/>
<text text-anchor="start" x="262" y="-453.9" font-family="Arial" font-size="14.00" fill="#000000">player_id </text>
<text text-anchor="start" x="322.6774" y="-453.9" font-family="Arial" font-size="14.00" fill="#666666">[varchar(36)]</text>
<polygon fill="none" stroke="#000000" points="255,-412.5 255,-442.5 566,-442.5 566,-412.5 255,-412.5"/>
<text text-anchor="start" x="262" y="-423.9" font-family="Arial" font-size="14.00" fill="#000000">achievement_id </text>
<text text-anchor="start" x="363.9158" y="-423.9" font-family="Arial" font-size="14.00" fill="#666666">[bigint(20)]</text>
<polygon fill="none" stroke="#000000" points="255,-382.5 255,-412.5 566,-412.5 566,-382.5 255,-382.5"/>
<text text-anchor="start" x="262" y="-393.9" font-family="Arial" font-size="14.00" fill="#000000">count </text>
<text text-anchor="start" x="300.129" y="-393.9" font-family="Arial" font-size="14.00" fill="#666666">[bigint(20)]</text>
<polygon fill="none" stroke="#000000" stroke-width="3" points="253,-381.5 253,-509.5 567,-509.5 567,-381.5 253,-381.5"/>
</g>
<!-- players -->
<g id="node2" class="node">
<title>players</title>
<polygon fill="#efefef" stroke="transparent" points="147,-162.5 147,-197.5 346,-197.5 346,-162.5 147,-162.5"/>
<polygon fill="none" stroke="#000000" points="147,-162.5 147,-197.5 346,-197.5 346,-162.5 147,-162.5"/>
<text text-anchor="start" x="153.7135" y="-175.3" font-family="Arial Bold" font-size="18.00" fill="#000000">players</text>
<text text-anchor="start" x="211.7185" y="-175.3" font-family="Arial" font-size="14.00" fill="#000000">    </text>
<text text-anchor="start" x="245.9233" y="-175.3" font-family="Arial" font-size="14.00" fill="#666666">[BASE TABLE]</text>
<polygon fill="none" stroke="#000000" points="147,-132.5 147,-162.5 346,-162.5 346,-132.5 147,-132.5"/>
<text text-anchor="start" x="154" y="-143.9" font-family="Arial" font-size="14.00" fill="#000000">id    </text>
<text text-anchor="start" x="199.094" y="-143.9" font-family="Arial" font-size="14.00" fill="#666666">[varchar(36)]</text>
<polygon fill="none" stroke="#000000" points="147,-102.5 147,-132.5 346,-132.5 346,-102.5 147,-102.5"/>
<text text-anchor="start" x="154" y="-113.9" font-family="Arial" font-size="14.00" fill="#000000">name    </text>
<text text-anchor="start" x="223.2132" y="-113.9" font-family="Arial" font-size="14.00" fill="#666666">[varchar(32)]</text>
</g>
<!-- player_achievements&#45;&gt;players -->
<g id="edge1" class="edge">
<title>player_achievements:player_id&#45;&gt;players:id</title>
<path fill="none" stroke="#000000" d="M244.9624,-456.4825C206.1182,-447.6544 236.5627,-383.2505 255,-337 276.7698,-282.3898 324.2302,-295.6102 346,-241 361.3881,-202.3986 387.5556,-147.5 346,-147.5"/>
<polygon fill="#000000" stroke="#000000" points="245.051,-456.4914 254.5461,-461.9771 250.0255,-456.9957 255,-457.5 255,-457.5 255,-457.5 250.0255,-456.9957 255.4539,-453.0229 245.051,-456.4914 245.051,-456.4914"/>
<text text-anchor="start" x="7.167" y="-467.5" font-family="Arial" font-size="10.00" fill="#000000">FOREIGN KEY (player_id) REFERENCES players (id)</text>
</g>
<!-- achievements -->
<g id="node3" class="node">
<title>achievements</title>
<polygon fill="#efefef" stroke="transparent" points="450,-222.5 450,-257.5 702,-257.5 702,-222.5 450,-222.5"/>
<polygon fill="none" stroke="#000000" points="450,-222.5 450,-257.5 702,-257.5 702,-222.5 450,-222.5"/>
<text text-anchor="start" x="456.7031" y="-235.3" font-family="Arial Bold" font-size="18.00" fill="#000000">achievements</text>
<text text-anchor="start" x="567.7289" y="-235.3" font-family="Arial" font-size="14.00" fill="#000000">    </text>
<text text-anchor="start" x="601.9337" y="-235.3" font-family="Arial" font-size="14.00" fill="#666666">[BASE TABLE]</text>
<polygon fill="none" stroke="#000000" points="450,-192.5 450,-222.5 702,-222.5 702,-192.5 450,-192.5"/>
<text text-anchor="start" x="457" y="-203.9" font-family="Arial" font-size="14.00" fill="#000000">id    </text>
<text text-anchor="start" x="502.094" y="-203.9" font-family="Arial" font-size="14.00" fill="#666666">[bigint(20)]</text>
<polygon fill="none" stroke="#000000" points="450,-162.5 450,-192.5 702,-192.5 702,-162.5 450,-162.5"/>
<text text-anchor="start" x="457" y="-173.9" font-family="Arial" font-size="14.00" fill="#000000">key    </text>
<text text-anchor="start" x="512.9874" y="-173.9" font-family="Arial" font-size="14.00" fill="#666666">[varchar(255)]</text>
<polygon fill="none" stroke="#000000" points="450,-132.5 450,-162.5 702,-162.5 702,-132.5 450,-132.5"/>
<text text-anchor="start" x="457" y="-143.9" font-family="Arial" font-size="14.00" fill="#000000">count    </text>
<text text-anchor="start" x="525.4432" y="-143.9" font-family="Arial" font-size="14.00" fill="#666666">[bigint(20)]</text>
<polygon fill="none" stroke="#000000" points="450,-102.5 450,-132.5 702,-132.5 702,-102.5 450,-102.5"/>
<text text-anchor="start" x="457" y="-113.9" font-family="Arial" font-size="14.00" fill="#000000">point    </text>
<text text-anchor="start" x="521.5498" y="-113.9" font-family="Arial" font-size="14.00" fill="#666666">[int(11)]</text>
<polygon fill="none" stroke="#000000" points="450,-72.5 450,-102.5 702,-102.5 702,-72.5 450,-72.5"/>
<text text-anchor="start" x="457" y="-83.9" font-family="Arial" font-size="14.00" fill="#000000">hidden    </text>
<text text-anchor="start" x="533.2244" y="-83.9" font-family="Arial" font-size="14.00" fill="#666666">[tinyint(1)]</text>
<polygon fill="none" stroke="#000000" points="450,-42.5 450,-72.5 702,-72.5 702,-42.5 450,-42.5"/>
<text text-anchor="start" x="457" y="-53.9" font-family="Arial" font-size="14.00" fill="#000000">flags    </text>
<text text-anchor="start" x="520.7672" y="-53.9" font-family="Arial" font-size="14.00" fill="#666666">[int(11)]</text>
</g>
<!-- player_achievements&#45;&gt;achievements -->
<g id="edge2" class="edge">
<title>player_achievements:achievement_id&#45;&gt;achievements:id</title>
<path fill="none" stroke="#000000" d="M576.2106,-425.9154C602.9544,-416.3945 587.5271,-366.2208 566,-337 533.9822,-293.5392 482.0178,-344.4608 450,-301 425.3523,-267.5433 408.4444,-207.5 450,-207.5"/>
<polygon fill="#000000" stroke="#000000" points="575.8817,-425.9663 565.3098,-423.0532 570.9409,-426.7332 566,-427.5 566,-427.5 566,-427.5 570.9409,-426.7332 566.6902,-431.9468 575.8817,-425.9663 575.8817,-425.9663"/>
<text text-anchor="start" x="572.711" y="-437.5" font-family="Arial" font-size="10.00" fill="#000000">FOREIGN KEY (achievement_id) REFERENCES achievements (id)</text>
</g>
</g>
</svg>
