<?xml version="1.0" encoding="UTF-8" standalone="no"?>
<!DOCTYPE svg PUBLIC "-//W3C//DTD SVG 1.1//EN"
 "http://www.w3.org/Graphics/SVG/1.1/DTD/svg11.dtd">
<!-- Generated by graphviz version 2.40.1 (20161225.0304)
 -->
<!-- Title: players Pages: 1 -->
<svg width="617pt" height="442pt"
 viewBox="0.00 0.00 616.50 442.00" xmlns="http://www.w3.org/2000/svg" xmlns:xlink="http://www.w3.org/1999/xlink">
<g id="graph0" class="graph" transform="scale(1 1) rotate(0) translate(4 438)">
<title>players</title>
<polygon fill="#ffffff" stroke="transparent" points="-4,4 -4,-438 612.5,-438 612.5,4 -4,4"/>
<!-- players -->
<g id="node1" class="node">
<title>players</title>
<polygon fill="#efefef" stroke="transparent" points="311,-105.5 311,-140.5 510,-140.5 510,-105.5 311,-105.5"/>
<polygon fill="none" stroke="#000000" points="311,-105.5 311,-140.5 510,-140.5 510,-105.5 311,-105.5"/>
<text text-anchor="start" x="317.7135" y="-118.3" font-family="Arial Bold" font-size="18.00" fill="#000000">players</text>
<text text-anchor="start" x="375.7185" y="-118.3" font-family="Arial" font-size="14.00" fill="#000000">    </text>
<text text-anchor="start" x="409.9233" y="-118.3" font-family="Arial" font-size="14.00" fill="#666666">[BASE TABLE]</text>
<polygon fill="none" stroke="#000000" points="311,-75.5 311,-105.5 510,-105.5 510,-75.5 311,-75.5"/>
<text text-anchor="start" x="318" y="-86.9" font-family="Arial" font-size="14.00" fill="#000000">id </text>
<text text-anchor="start" x="332.7798" y="-86.9" font-family="Arial" font-size="14.00" fill="#666666">[varchar(36)]</text>
<polygon fill="none" stroke="#000000" points="311,-45.5 311,-75.5 510,-75.5 510,-45.5 311,-45.5"/>
<text text-anchor="start" x="318" y="-56.9" font-family="Arial" font-size="14.00" fill="#000000">name </text>
<text text-anchor="start" x="356.899" y="-56.9" font-family="Arial" font-size="14.00" fill="#666666">[varchar(32)]</text>
<polygon fill="none" stroke="#000000" stroke-width="3" points="309,-44.5 309,-142.5 511,-142.5 511,-44.5 309,-44.5"/>
</g>
<!-- player_achievements -->
<g id="node2" class="node">
<title>player_achievements</title>
<polygon fill="#efefef" stroke="transparent" points="255,-355.5 255,-390.5 566,-390.5 566,-355.5 255,-355.5"/>
<polygon fill="none" stroke="#000000" points="255,-355.5 255,-390.5 566,-390.5 566,-355.5 255,-355.5"/>
<text text-anchor="start" x="261.6975" y="-368.3" font-family="Arial Bold" font-size="18.00" fill="#000000">player_achievements</text>
<text text-anchor="start" x="431.7345" y="-368.3" font-family="Arial" font-size="14.00" fill="#000000">    </text>
<text text-anchor="start" x="465.9393" y="-368.3" font-family="Arial" font-size="14.00" fill="#666666">[BASE TABLE]</text>
<polygon fill="none" stroke="#000000" points="255,-325.5 255,-355.5 566,-355.5 566,-325.5 255,-325.5"/>
<text text-anchor="start" x="262" y="-336.9" font-family="Arial" font-size="14.00" fill="#000000">player_id    </text>
<text text-anchor="start" x="352.9916" y="-336.9" font-family="Arial" font-size="14.00" fill="#666666">[varchar(36)]</text>
<polygon fill="none" stroke="#000000" points="255,-295.5 255,-325.5 566,-325.5 566,-295.5 255,-295.5"/>
<text text-anchor="start" x="262" y="-306.9" font-family="Arial" font-size="14.00" fill="#000000">achievement_id    </text>
<text text-anchor="start" x="394.23" y="-306.9" font-family="Arial" font-size="14.00" fill="#666666">[bigint(20)]</text>
<polygon fill="none" stroke="#000000" points="255,-265.5 255,-295.5 566,-295.5 566,-265.5 255,-265.5"/>
<text text-anchor="start" x="262" y="-276.9" font-family="Arial" font-size="14.00" fill="#000000">count    </text>
<text text-anchor="start" x="330.4432" y="-276.9" font-family="Arial" font-size="14.00" fill="#666666">[bigint(20)]</text>
</g>
<!-- player_achievements&#45;&gt;players -->
<g id="edge1" class="edge">
<title>player_achievements:player_id&#45;&gt;players:id</title>
<path fill="none" stroke="#000000" d="M244.8194,-339.7828C144.692,-325.1191 200.6937,-90.5 311,-90.5"/>
<polygon fill="#000000" stroke="#000000" points="245.0247,-339.7972 254.6837,-344.9889 250.0124,-340.1486 255,-340.5 255,-340.5 255,-340.5 250.0124,-340.1486 255.3163,-336.0111 245.0247,-339.7972 245.0247,-339.7972"/>
<text text-anchor="start" x="7.167" y="-350.5" font-family="Arial" font-size="10.00" fill="#000000">FOREIGN KEY (player_id) REFERENCES players (id)</text>
</g>
</g>
</svg>
