<?xml version="1.0" encoding="UTF-8" standalone="no"?>
<!DOCTYPE svg PUBLIC "-//W3C//DTD SVG 1.1//EN"
 "http://www.w3.org/Graphics/SVG/1.1/DTD/svg11.dtd">
<!-- Generated by graphviz version 2.40.1 (20161225.0304)
 -->
<!-- Title: azisabaachievements Pages: 1 -->
<svg width="854pt" height="586pt"
 viewBox="0.00 0.00 854.00 586.00" xmlns="http://www.w3.org/2000/svg" xmlns:xlink="http://www.w3.org/1999/xlink">
<g id="graph0" class="graph" transform="scale(1 1) rotate(0) translate(4 582)">
<title>azisabaachievements</title>
<polygon fill="#ffffff" stroke="transparent" points="-4,4 -4,-582 850,-582 850,4 -4,4"/>
<!-- achievements -->
<g id="node1" class="node">
<title>achievements</title>
<polygon fill="#efefef" stroke="transparent" points="141.5,-222.5 141.5,-257.5 393.5,-257.5 393.5,-222.5 141.5,-222.5"/>
<polygon fill="none" stroke="#000000" points="141.5,-222.5 141.5,-257.5 393.5,-257.5 393.5,-222.5 141.5,-222.5"/>
<text text-anchor="start" x="148.2031" y="-235.3" font-family="Arial Bold" font-size="18.00" fill="#000000">achievements</text>
<text text-anchor="start" x="259.2289" y="-235.3" font-family="Arial" font-size="14.00" fill="#000000">    </text>
<text text-anchor="start" x="293.4337" y="-235.3" font-family="Arial" font-size="14.00" fill="#666666">[BASE TABLE]</text>
<polygon fill="none" stroke="#000000" points="141.5,-192.5 141.5,-222.5 393.5,-222.5 393.5,-192.5 141.5,-192.5"/>
<text text-anchor="start" x="148.5" y="-203.9" font-family="Arial" font-size="14.00" fill="#000000">id    </text>
<text text-anchor="start" x="193.594" y="-203.9" font-family="Arial" font-size="14.00" fill="#666666">[bigint(20)]</text>
<polygon fill="none" stroke="#000000" points="141.5,-162.5 141.5,-192.5 393.5,-192.5 393.5,-162.5 141.5,-162.5"/>
<text text-anchor="start" x="148.5" y="-173.9" font-family="Arial" font-size="14.00" fill="#000000">key    </text>
<text text-anchor="start" x="204.4874" y="-173.9" font-family="Arial" font-size="14.00" fill="#666666">[varchar(255)]</text>
<polygon fill="none" stroke="#000000" points="141.5,-132.5 141.5,-162.5 393.5,-162.5 393.5,-132.5 141.5,-132.5"/>
<text text-anchor="start" x="148.5" y="-143.9" font-family="Arial" font-size="14.00" fill="#000000">count    </text>
<text text-anchor="start" x="216.9432" y="-143.9" font-family="Arial" font-size="14.00" fill="#666666">[bigint(20)]</text>
<polygon fill="none" stroke="#000000" points="141.5,-102.5 141.5,-132.5 393.5,-132.5 393.5,-102.5 141.5,-102.5"/>
<text text-anchor="start" x="148.5" y="-113.9" font-family="Arial" font-size="14.00" fill="#000000">point    </text>
<text text-anchor="start" x="213.0498" y="-113.9" font-family="Arial" font-size="14.00" fill="#666666">[int(11)]</text>
<polygon fill="none" stroke="#000000" points="141.5,-72.5 141.5,-102.5 393.5,-102.5 393.5,-72.5 141.5,-72.5"/>
<text text-anchor="start" x="148.5" y="-83.9" font-family="Arial" font-size="14.00" fill="#000000">hidden    </text>
<text text-anchor="start" x="224.7244" y="-83.9" font-family="Arial" font-size="14.00" fill="#666666">[tinyint(1)]</text>
<polygon fill="none" stroke="#000000" points="141.5,-42.5 141.5,-72.5 393.5,-72.5 393.5,-42.5 141.5,-42.5"/>
<text text-anchor="start" x="148.5" y="-53.9" font-family="Arial" font-size="14.00" fill="#000000">flags    </text>
<text text-anchor="start" x="212.2672" y="-53.9" font-family="Arial" font-size="14.00" fill="#666666">[int(11)]</text>
</g>
<!-- achievement_translations -->
<g id="node2" class="node">
<title>achievement_translations</title>
<polygon fill="#efefef" stroke="transparent" points="43.5,-499.5 43.5,-534.5 388.5,-534.5 388.5,-499.5 43.5,-499.5"/>
<polygon fill="none" stroke="#000000" points="43.5,-499.5 43.5,-534.5 388.5,-534.5 388.5,-499.5 43.5,-499.5"/>
<text text-anchor="start" x="50.192" y="-512.3" font-family="Arial Bold" font-size="18.00" fill="#000000">achievement_translations</text>
<text text-anchor="start" x="254.24" y="-512.3" font-family="Arial" font-size="14.00" fill="#000000">    </text>
<text text-anchor="start" x="288.4448" y="-512.3" font-family="Arial" font-size="14.00" fill="#666666">[BASE TABLE]</text>
<polygon fill="none" stroke="#000000" points="43.5,-469.5 43.5,-499.5 388.5,-499.5 388.5,-469.5 43.5,-469.5"/>
<text text-anchor="start" x="50.5" y="-480.9" font-family="Arial" font-size="14.00" fill="#000000">id    </text>
<text text-anchor="start" x="95.594" y="-480.9" font-family="Arial" font-size="14.00" fill="#666666">[bigint(20)]</text>
<polygon fill="none" stroke="#000000" points="43.5,-439.5 43.5,-469.5 388.5,-469.5 388.5,-439.5 43.5,-439.5"/>
<text text-anchor="start" x="50.5" y="-450.9" font-family="Arial" font-size="14.00" fill="#000000">lang    </text>
<text text-anchor="start" x="111.1592" y="-450.9" font-family="Arial" font-size="14.00" fill="#666666">[varchar(5)]</text>
<polygon fill="none" stroke="#000000" points="43.5,-409.5 43.5,-439.5 388.5,-439.5 388.5,-409.5 43.5,-409.5"/>
<text text-anchor="start" x="50.5" y="-420.9" font-family="Arial" font-size="14.00" fill="#000000">name    </text>
<text text-anchor="start" x="119.7132" y="-420.9" font-family="Arial" font-size="14.00" fill="#666666">[varchar(255)]</text>
<polygon fill="none" stroke="#000000" points="43.5,-379.5 43.5,-409.5 388.5,-409.5 388.5,-379.5 43.5,-379.5"/>
<text text-anchor="start" x="50.5" y="-390.9" font-family="Arial" font-size="14.00" fill="#000000">description    </text>
<text text-anchor="start" x="152.3822" y="-390.9" font-family="Arial" font-size="14.00" fill="#666666">[varchar(255)]</text>
</g>
<!-- achievement_translations&#45;&gt;achievements -->
<g id="edge1" class="edge">
<title>achievement_translations:id&#45;&gt;achievements:id</title>
<path fill="none" stroke="#000000" d="M398.4747,-483.6454C451.5152,-473.9351 429.0368,-383.8733 388.5,-337 315.9322,-253.0888 214.0678,-384.9112 141.5,-301 114.3172,-269.5682 99.9444,-207.5 141.5,-207.5"/>
<polygon fill="#000000" stroke="#000000" points="398.4635,-483.6463 388.1158,-480.0164 393.4817,-484.0731 388.5,-484.5 388.5,-484.5 388.5,-484.5 393.4817,-484.0731 388.8842,-488.9836 398.4635,-483.6463 398.4635,-483.6463"/>
<text text-anchor="start" x="395.331" y="-494.5" font-family="Arial" font-size="10.00" fill="#000000">FOREIGN KEY (id) REFERENCES achievements (id)</text>
</g>
<!-- players -->
<g id="node3" class="node">
<title>players</title>
<polygon fill="#efefef" stroke="transparent" points="548.5,-162.5 548.5,-197.5 747.5,-197.5 747.5,-162.5 548.5,-162.5"/>
<polygon fill="none" stroke="#000000" points="548.5,-162.5 548.5,-197.5 747.5,-197.5 747.5,-162.5 548.5,-162.5"/>
<text text-anchor="start" x="555.2135" y="-175.3" font-family="Arial Bold" font-size="18.00" fill="#000000">players</text>
<text text-anchor="start" x="613.2185" y="-175.3" font-family="Arial" font-size="14.00" fill="#000000">    </text>
<text text-anchor="start" x="647.4233" y="-175.3" font-family="Arial" font-size="14.00" fill="#666666">[BASE TABLE]</text>
<polygon fill="none" stroke="#000000" points="548.5,-132.5 548.5,-162.5 747.5,-162.5 747.5,-132.5 548.5,-132.5"/>
<text text-anchor="start" x="555.5" y="-143.9" font-family="Arial" font-size="14.00" fill="#000000">id    </text>
<text text-anchor="start" x="600.594" y="-143.9" font-family="Arial" font-size="14.00" fill="#666666">[varchar(36)]</text>
<polygon fill="none" stroke="#000000" points="548.5,-102.5 548.5,-132.5 747.5,-132.5 747.5,-102.5 548.5,-102.5"/>
<text text-anchor="start" x="555.5" y="-113.9" font-family="Arial" font-size="14.00" fill="#000000">name    </text>
<text text-anchor="start" x="624.7132" y="-113.9" font-family="Arial" font-size="14.00" fill="#666666">[varchar(32)]</text>
</g>
<!-- player_achievements -->
<g id="node4" class="node">
<title>player_achievements</title>
<polygon fill="#efefef" stroke="transparent" points="492.5,-484.5 492.5,-519.5 803.5,-519.5 803.5,-484.5 492.5,-484.5"/>
<polygon fill="none" stroke="#000000" points="492.5,-484.5 492.5,-519.5 803.5,-519.5 803.5,-484.5 492.5,-484.5"/>
<text text-anchor="start" x="499.1975" y="-497.3" font-family="Arial Bold" font-size="18.00" fill="#000000">player_achievements</text>
<text text-anchor="start" x="669.2345" y="-497.3" font-family="Arial" font-size="14.00" fill="#000000">    </text>
<text text-anchor="start" x="703.4393" y="-497.3" font-family="Arial" font-size="14.00" fill="#666666">[BASE TABLE]</text>
<polygon fill="none" stroke="#000000" points="492.5,-454.5 492.5,-484.5 803.5,-484.5 803.5,-454.5 492.5,-454.5"/>
<text text-anchor="start" x="499.5" y="-465.9" font-family="Arial" font-size="14.00" fill="#000000">player_id    </text>
<text text-anchor="start" x="590.4916" y="-465.9" font-family="Arial" font-size="14.00" fill="#666666">[varchar(36)]</text>
<polygon fill="none" stroke="#000000" points="492.5,-424.5 492.5,-454.5 803.5,-454.5 803.5,-424.5 492.5,-424.5"/>
<text text-anchor="start" x="499.5" y="-435.9" font-family="Arial" font-size="14.00" fill="#000000">achievement_id    </text>
<text text-anchor="start" x="631.73" y="-435.9" font-family="Arial" font-size="14.00" fill="#666666">[bigint(20)]</text>
<polygon fill="none" stroke="#000000" points="492.5,-394.5 492.5,-424.5 803.5,-424.5 803.5,-394.5 492.5,-394.5"/>
<text text-anchor="start" x="499.5" y="-405.9" font-family="Arial" font-size="14.00" fill="#000000">count    </text>
<text text-anchor="start" x="567.9432" y="-405.9" font-family="Arial" font-size="14.00" fill="#666666">[bigint(20)]</text>
</g>
<!-- player_achievements&#45;&gt;achievements -->
<g id="edge3" class="edge">
<title>player_achievements:achievement_id&#45;&gt;achievements:id</title>
<path fill="none" stroke="#000000" d="M482.3851,-438.7927C388.2173,-424.7878 501.9938,-207.5 393.5,-207.5"/>
<polygon fill="#000000" stroke="#000000" points="482.5244,-438.8023 492.1861,-443.989 487.5122,-439.1512 492.5,-439.5 492.5,-439.5 492.5,-439.5 487.5122,-439.1512 492.8139,-435.011 482.5244,-438.8023 482.5244,-438.8023"/>
<text text-anchor="start" x="499.211" y="-449.5" font-family="Arial" font-size="10.00" fill="#000000">FOREIGN KEY (achievement_id) REFERENCES achievements (id)</text>
</g>
<!-- player_achievements&#45;&gt;players -->
<g id="edge2" class="edge">
<title>player_achievements:player_id&#45;&gt;players:id</title>
<path fill="none" stroke="#000000" d="M482.4158,-467.0933C425.6008,-437.6272 479.5586,-147.5 548.5,-147.5"/>
<polygon fill="#000000" stroke="#000000" points="482.7732,-467.1785 491.4553,-473.8771 487.6366,-468.3393 492.5,-469.5 492.5,-469.5 492.5,-469.5 487.6366,-468.3393 493.5447,-465.1229 482.7732,-467.1785 482.7732,-467.1785"/>
<text text-anchor="start" x="499.667" y="-479.5" font-family="Arial" font-size="10.00" fill="#000000">FOREIGN KEY (player_id) REFERENCES players (id)</text>
</g>
</g>
</svg>
